<?xml version="1.0" encoding="UTF-8"?>
<!DOCTYPE svg PUBLIC "-//W3C//DTD SVG 1.1//EN" "http://www.w3.org/Graphics/SVG/1.1/DTD/svg11.dtd">
<!-- Creator: CorelDRAW 2021 (64-Bit) -->
<svg xmlns="http://www.w3.org/2000/svg" xml:space="preserve" width="0.443512in" height="0.443512in" version="1.1" style="shape-rendering:geometricPrecision; text-rendering:geometricPrecision; image-rendering:optimizeQuality; fill-rule:evenodd; clip-rule:evenodd"
viewBox="0 0 40.18 40.18"
 xmlns:xlink="http://www.w3.org/1999/xlink"
 xmlns:xodm="http://www.corel.com/coreldraw/odm/2003">
 <defs>
  <style type="text/css">
   <![CDATA[
    .str0 {stroke:#377DFF;stroke-width:1.26;stroke-linecap:round;stroke-linejoin:round;stroke-miterlimit:2.61313}
    .str1 {stroke:#FEFEFE;stroke-width:0.63;stroke-linecap:round;stroke-linejoin:round;stroke-miterlimit:2.61313}
    .fil0 {fill:none}
    .fil1 {fill:#377DFF}
   ]]>
  </style>
 </defs>
 <g id="Layer_x0020_1">
  <metadata id="CorelCorpID_0Corel-Layer"/>
  <circle class="fil0 str0" cx="20.09" cy="20.09" r="19.46"/>
  <path class="fil1 str1" d="M14.26 9.08l11.66 0c1.09,0 1.98,0.89 1.98,1.98l0 6.77 -1.4 0 0 -6.58c0,-0.29 -0.24,-0.53 -0.53,-0.53l-11.74 0c-0.29,0 -0.53,0.24 -0.53,0.53l0 17.68c0,0.29 0.24,0.53 0.53,0.53l11.74 0c0.29,0 0.53,-0.24 0.53,-0.53l0 -8.1 -9.19 0 0 5.27 5.15 0 0 -3.19 1.53 0 0 3.19 0 1.53 -1.53 0 -5.15 0 -1.5 0 0 -1.53 0 -5.27 0 -1.44 1.5 0 9.19 0 1.4 0 0 1.44 0 8.29c0,1.09 -0.89,1.98 -1.98,1.98l-11.66 0c-1.09,0 -1.98,-0.89 -1.98,-1.98l0 -18.07c0,-1.09 0.89,-1.98 1.98,-1.98z"/>
 </g>
</svg>
