<?xml version="1.0" encoding="UTF-8"?>
<svg xmlns="http://www.w3.org/2000/svg" xmlns:xlink="http://www.w3.org/1999/xlink" width="512pt" height="512pt" viewBox="0 0 512 512" version="1.1">
<g id="surface1">
<path style=" stroke:none;fill-rule:nonzero;fill:#4867aa;fill-opacity:1;" d="M 363 255 C 359.238281 270.273438 357.5625 286.441406 355.273438 302 C 354.382813 308.039063 354.597656 317.351563 351.484375 322.683594 C 349.671875 325.785156 345 325 342 325 L 315 325 C 312.230469 325 305.277344 323.738281 303.601563 326.601563 C 302 329.203125 303 334.101563 303 337 L 303 493 C 303 495.492188 301.863281 502 305.316406 502.507813 C 309.738281 503.355469 316.78125 500.28125 321 499 C 333.710938 495.039063 345.800781 490.269531 358 485 C 419.316406 458.507813 471.808594 399.089844 490.574219 335 C 505 285.421875 507 234 492.277344 184 C 463.175781 86.316406 370 10.539063 267 8.015625 C 229.527344 7.097656 191.503906 12.605469 157 28 C 48.664063 75.757813 -12.859375 196.289063 13.652344 312 C 30.988281 387.679688 82 453.238281 154 484.28125 C 168.847656 490.6875 184.207031 496 200 499.425781 C 204.710938 500.480469 211.875 503.476563 216.683594 502.511719 C 220 501.816406 219 495.519531 219 493 L 219 337 C 219 334.101563 219.914063 329.203125 218.398438 326.601563 C 216.652344 323.617188 208.90625 325 206 325 L 174 325 C 170.964844 325 165.253906 326.035156 163.601563 322.683594 C 161.730469 319 163 312.15625 163 308 L 163 272 C 163 268.070313 161.457031 260 164 256.601563 C 166 254 172 255 175 255 L 206 255 C 208.90625 255 216.652344 256.382813 218.398438 253.398438 C 220.265625 250.199219 219 243.601563 219 240 L 219 205 C 219 166.34375 234 128.75 272 113.011719 C 295.496094 103.269531 322.199219 103.746094 347 106.714844 C 353 107.445313 366.777344 106.210938 371.398438 110.742188 C 376.324219 115.578125 373 135.328125 373 142 C 373 148.222656 375.90625 164.429688 371.972656 169.398438 C 369 173.152344 356.382813 171 352 171 C 336 171 316.988281 168.746094 303 178 C 285 189.78125 289 215.710938 289 234 C 289 238 286.84375 252.203125 290.601563 254.398438 C 295 257.050781 305.804688 255 311 255 L 363 255 "/>
</g>
</svg>
